<svg width="720" height="720" viewBox="0 0 720 720" fill="none" xmlns="http://www.w3.org/2000/svg">
<rect width="720" height="720" rx="124" fill="black"/>
<path fill-rule="evenodd" clip-rule="evenodd" d="M642 360C642 510.222 515.745 632 360 632C204.255 632 78 510.222 78 360C78 209.778 204.255 88 360 88C515.745 88 642 209.778 642 360ZM198.695 352.655C227.576 336.009 264.507 345.887 281.182 374.719C284.215 379.963 286.369 385.472 287.689 391.078C287.738 391.284 287.997 391.355 288.145 391.202C318.858 359.325 318.48 308.627 287.012 277.214C255.161 245.418 203.521 245.418 171.67 277.214C140.447 308.382 139.832 358.535 169.824 390.452C169.97 390.607 170.23 390.539 170.281 390.334C174.096 375.002 183.907 361.178 198.695 352.655ZM449.731 268.531C410.722 291.014 397.357 340.808 419.879 379.749C422.674 384.582 426.573 388.251 431.209 391.068C431.318 391.135 431.459 391.068 431.478 390.942C434.053 373.316 444.394 356.997 461.046 347.399C489.928 330.753 526.859 340.632 543.533 369.463C547.843 376.915 550.378 384.903 551.269 392.94C551.286 393.093 551.478 393.154 551.58 393.039C574.216 367.534 579.148 329.465 561.142 298.332C538.621 259.391 488.74 246.049 449.731 268.531ZM361.607 477.701C297.134 477.701 271.091 446.604 230.099 396.731C223.946 389.244 213.662 388.892 207.129 395.943C200.596 402.994 200.289 414.779 206.442 422.265C213.087 430.35 219.484 438.482 225.779 446.484L225.78 446.486C263.889 494.932 298.272 538.642 361.607 538.642C424.942 538.642 459.326 494.932 497.435 446.486C503.73 438.483 510.127 430.351 516.773 422.265C522.926 414.779 522.619 402.994 516.086 395.943C509.553 388.892 499.269 389.244 493.116 396.731C452.123 446.604 426.081 477.701 361.607 477.701Z" fill="white"/>
</svg>
